<?xml version="1.0" encoding="UTF-8" standalone="no"?>
<svg width="120px" height="10px" viewBox="0 0 120 10" version="1.1" xmlns="http://www.w3.org/2000/svg" xmlns:xlink="http://www.w3.org/1999/xlink" xmlns:sketch="http://www.bohemiancoding.com/sketch/ns">
    <!-- Generator: Sketch 3.4.1 (15681) - http://www.bohemiancoding.com/sketch -->
    <title>Outlines</title>
    <desc>Created with Sketch.</desc>
    <defs></defs>
    <g id="Page-1" stroke="none" stroke-width="1" fill="none" fill-rule="evenodd" sketch:type="MSPage">
        <g id="Legal---Desktop-Sadness" sketch:type="MSArtboardGroup" transform="translate(-49.000000, -265.000000)" fill="#C0BFBF">
            <g id="Outlines" sketch:type="MSLayerGroup" transform="translate(49.000000, 264.000000)">
                <path d="M0.47265625,7.03955078 C0.504882812,7.97949219 1.17089844,9.15576172 3.08300781,9.15576172 C4.57080078,9.15576172 5.79003906,8.42529297 5.79003906,6.98046875 C5.79003906,5.82568359 5.02734375,5.3046875 3.89404297,4.99853516 L2.60498047,4.64941406 C1.89599609,4.46679688 1.56835938,4.06396484 1.56835938,3.52685547 C1.56835938,2.71582031 2.25585938,2.27001953 3.18505859,2.27001953 C4.23779297,2.27001953 4.78564453,2.83398438 4.85546875,3.56445312 L5.71484375,3.56445312 C5.68261719,2.11962891 4.40429688,1.49121094 3.20654297,1.49121094 C1.92822266,1.49121094 0.698242188,2.22167969 0.698242188,3.5859375 C0.698242188,4.71923828 1.54150391,5.26708984 2.39013672,5.49267578 L3.70605469,5.84179688 C4.53320312,6.05664062 4.91455078,6.41650391 4.91455078,7.03955078 C4.91455078,7.87207031 4.23242188,8.37158203 3.19042969,8.37158203 C2.03564453,8.37158203 1.41259766,7.77539062 1.33740234,7.03955078 L0.47265625,7.03955078 Z M12.1223437,3.36572266 L11.2737109,3.36572266 L11.2737109,6.98046875 C11.2737109,7.71630859 10.6184375,8.36083984 9.74294922,8.36083984 C9.02859375,8.36083984 8.45925781,8.04394531 8.45925781,7.08789062 L8.45925781,3.36572266 L7.610625,3.36572266 L7.610625,7.30273438 C7.610625,8.60253906 8.42166016,9.09130859 9.54958984,9.09130859 C10.5378711,9.09130859 11.0642383,8.52734375 11.2253711,8.06542969 L11.2737109,8.06542969 L11.2737109,9 L12.1223437,9 L12.1223437,3.36572266 Z M16.8486914,9.09130859 C18.1753516,9.09130859 19.0562109,8.19433594 19.0562109,6.69580078 L19.0562109,5.66455078 C19.0562109,4.17675781 18.1914648,3.27441406 16.880918,3.27441406 C15.8872656,3.27441406 15.3447852,3.79541016 15.2105078,4.25732422 L15.1675391,4.25732422 L15.1675391,1.28173828 L14.3242773,1.28173828 L14.3242773,9 L15.1245703,9 L15.1245703,8.17285156 L15.1675391,8.17285156 C15.3770117,8.64013672 15.90875,9.09130859 16.8486914,9.09130859 L16.8486914,9.09130859 Z M16.7358984,8.33935547 C15.795957,8.33935547 15.1675391,7.64111328 15.1675391,6.73876953 L15.1675391,5.73974609 C15.1675391,4.69775391 15.7476172,4.015625 16.709043,4.015625 C17.6436133,4.015625 18.2075781,4.67626953 18.2075781,5.87939453 L18.2075781,6.5078125 C18.2075781,7.75390625 17.6006445,8.33935547 16.7358984,8.33935547 L16.7358984,8.33935547 Z M20.6888086,4.96630859 C20.6888086,6.078125 21.5535547,6.29296875 22.6116602,6.51318359 C23.4119531,6.66894531 24.0296289,6.79785156 24.0296289,7.453125 C24.0296289,7.96875 23.6429102,8.38769531 22.6975977,8.38769531 C21.859707,8.38769531 21.4998437,8.07080078 21.4192773,7.54443359 L20.5921289,7.54443359 C20.5921289,8.55419922 21.456875,9.09130859 22.66,9.09130859 C23.9598047,9.09130859 24.8621484,8.46826172 24.8621484,7.35107422 C24.8621484,6.23925781 23.9544336,5.97070312 22.8963281,5.78271484 C22.2517969,5.66455078 21.515957,5.57324219 21.515957,4.875 C21.515957,4.29492188 22.0208398,3.96728516 22.7083398,3.96728516 C23.5086328,3.96728516 23.8953516,4.41845703 23.9275781,4.83203125 L24.7225,4.83203125 C24.7225,3.91357422 23.9436914,3.27441406 22.7459375,3.27441406 C21.6770898,3.27441406 20.6888086,3.79003906 20.6888086,4.96630859 L20.6888086,4.96630859 Z M26.4464062,6.66894531 C26.4464062,8.15136719 27.3326367,9.09130859 28.7559766,9.09130859 C30.2276562,9.09130859 30.8775586,8.26953125 30.9151562,7.51220703 L30.0718945,7.51220703 C29.9644727,7.93115234 29.642207,8.30175781 28.7667187,8.30175781 C27.8482617,8.30175781 27.2842969,7.67871094 27.2842969,6.6796875 L27.2842969,5.71826172 C27.2842969,4.69775391 27.7891797,4.015625 28.7667187,4.015625 C29.7012891,4.015625 29.9644727,4.60644531 30.0289258,4.92333984 L30.8721875,4.92333984 C30.845332,4.13916016 30.1470898,3.27441406 28.7559766,3.27441406 C27.3326367,3.27441406 26.4464062,4.22509766 26.4464062,5.68066406 L26.4464062,6.66894531 Z M32.8216797,9 L33.6649414,9 L33.6649414,5.43896484 C33.6649414,4.67626953 34.1751953,4.06396484 35.1849609,4.06396484 C35.3460937,4.06396484 35.5233398,4.06933594 35.6146484,4.08544922 L35.6146484,3.30126953 C35.5018555,3.29052734 35.3890625,3.27978516 35.2870117,3.27978516 C34.2611328,3.27978516 33.8529297,3.85986328 33.7079102,4.23046875 L33.6649414,4.23046875 L33.6649414,3.36572266 L32.8216797,3.36572266 L32.8216797,9 Z M37.3170703,9 L38.160332,9 L38.160332,3.36572266 L37.3170703,3.36572266 L37.3170703,9 Z M37.1022266,1.609375 C37.1022266,1.96923828 37.3815234,2.23779297 37.7306445,2.23779297 C38.10125,2.23779297 38.3751758,1.96923828 38.3751758,1.609375 C38.3751758,1.23876953 38.10125,0.970214844 37.7306445,0.970214844 C37.3815234,0.970214844 37.1022266,1.23876953 37.1022266,1.609375 L37.1022266,1.609375 Z M43.0155859,9.09130859 C44.3422461,9.09130859 45.2231055,8.19433594 45.2231055,6.69580078 L45.2231055,5.66455078 C45.2231055,4.18212891 44.3583594,3.27441406 43.0531836,3.27441406 C42.1078711,3.27441406 41.5439062,3.74707031 41.3505469,4.25732422 L41.3075781,4.25732422 L41.3075781,3.36035156 L40.5072851,3.36035156 L40.5072851,10.9711914 L41.3505469,10.9711914 L41.3505469,8.17285156 L41.3935156,8.17285156 C41.6029883,8.64013672 42.0756445,9.09130859 43.0155859,9.09130859 L43.0155859,9.09130859 Z M42.8974219,8.33935547 C41.9628516,8.33935547 41.3505469,7.66796875 41.3505469,6.765625 L41.3505469,5.71289062 C41.3505469,4.67626953 41.9145117,4.015625 42.8705664,4.015625 C43.8105078,4.015625 44.3798437,4.65478516 44.3798437,5.86865234 L44.3798437,6.49707031 C44.3798437,7.75390625 43.7675391,8.33935547 42.8974219,8.33935547 L42.8974219,8.33935547 Z M47.4357812,3.36572266 L46.5764062,3.36572266 L46.5764062,4.08544922 L47.4357812,4.08544922 L47.4357812,7.42626953 C47.4357812,8.52734375 47.6774805,9.05371094 48.9987695,9.05371094 C49.1760156,9.05371094 49.5734766,9.02685547 49.6486719,9.01074219 L49.6486719,8.30712891 C49.5627344,8.31787109 49.3425195,8.33398438 49.2136133,8.33398438 C48.4992578,8.33398438 48.279043,8.16210938 48.279043,7.46923828 L48.279043,4.08544922 L49.5573633,4.08544922 L49.5573633,3.36572266 L48.279043,3.36572266 L48.279043,1.94775391 L47.4357812,1.94775391 L47.4357812,3.36572266 Z M51.5659375,9 L52.4091992,9 L52.4091992,3.36572266 L51.5659375,3.36572266 L51.5659375,9 Z M51.3510937,1.609375 C51.3510937,1.96923828 51.6303906,2.23779297 51.9795117,2.23779297 C52.3501172,2.23779297 52.624043,1.96923828 52.624043,1.609375 C52.624043,1.23876953 52.3501172,0.970214844 51.9795117,0.970214844 C51.6303906,0.970214844 51.3510937,1.23876953 51.3510937,1.609375 L51.3510937,1.609375 Z M56.8669922,3.27441406 C55.5027344,3.27441406 54.4714844,4.22509766 54.4714844,5.734375 L54.4714844,6.62597656 C54.4714844,8.21044922 55.48125,9.09130859 56.8669922,9.09130859 C58.2258789,9.09130859 59.2571289,8.19433594 59.2571289,6.62597656 L59.2571289,5.734375 C59.2571289,4.16601562 58.2258789,3.27441406 56.8669922,3.27441406 L56.8669922,3.27441406 Z M56.8669922,4.015625 C57.8123047,4.015625 58.4084961,4.74609375 58.4084961,5.82568359 L58.4084961,6.53466797 C58.4084961,7.64111328 57.8391601,8.33935547 56.8669922,8.33935547 C55.8894531,8.33935547 55.309375,7.64111328 55.309375,6.53466797 L55.309375,5.82568359 C55.309375,4.74609375 55.9270508,4.015625 56.8669922,4.015625 L56.8669922,4.015625 Z M61.1743945,9 L62.0176562,9 L62.0176562,5.84179688 C62.0176562,4.82666016 62.517168,4.00488281 63.5806445,4.00488281 C64.3970508,4.00488281 64.8535937,4.49365234 64.8535937,5.39599609 L64.8535937,9 L65.7022265,9 L65.7022265,5.1328125 C65.7022265,3.88134766 64.9180469,3.27441406 63.779375,3.27441406 C62.5816211,3.27441406 62.2056445,3.95117188 62.060625,4.39697266 L62.0176562,4.39697266 L62.0176562,3.36572266 L61.1743945,3.36572266 L61.1743945,9 Z M67.5872656,4.96630859 C67.5872656,6.078125 68.4520117,6.29296875 69.5101172,6.51318359 C70.3104101,6.66894531 70.9280859,6.79785156 70.9280859,7.453125 C70.9280859,7.96875 70.5413672,8.38769531 69.5960547,8.38769531 C68.758164,8.38769531 68.3983008,8.07080078 68.3177344,7.54443359 L67.4905859,7.54443359 C67.4905859,8.55419922 68.355332,9.09130859 69.558457,9.09130859 C70.8582617,9.09130859 71.7606055,8.46826172 71.7606055,7.35107422 C71.7606055,6.23925781 70.8528906,5.97070312 69.7947851,5.78271484 C69.1502539,5.66455078 68.414414,5.57324219 68.414414,4.875 C68.414414,4.29492188 68.9192969,3.96728516 69.6067969,3.96728516 C70.4070898,3.96728516 70.7938086,4.41845703 70.8260351,4.83203125 L71.620957,4.83203125 C71.620957,3.91357422 70.8421484,3.27441406 69.6443945,3.27441406 C68.5755469,3.27441406 67.5872656,3.79003906 67.5872656,4.96630859 L67.5872656,4.96630859 Z" id="Subscriptions" sketch:type="MSShapeGroup"></path>
                <path d="M77.0849609,9 L77.9282227,9 L77.9282227,5.43896484 C77.9282227,4.67626953 78.4384766,4.06396484 79.4482422,4.06396484 C79.609375,4.06396484 79.7866211,4.06933594 79.8779297,4.08544922 L79.8779297,3.30126953 C79.7651367,3.29052734 79.6523438,3.27978516 79.550293,3.27978516 C78.5244141,3.27978516 78.1162109,3.85986328 77.9711914,4.23046875 L77.9282227,4.23046875 L77.9282227,3.36572266 L77.0849609,3.36572266 L77.0849609,9 Z M83.4993164,9.09130859 C84.8743164,9.09130859 85.5510742,8.24267578 85.6423828,7.66796875 L84.7454102,7.66796875 C84.6379883,8.01708984 84.1814453,8.33935547 83.4939453,8.33935547 C82.500293,8.33935547 81.984668,7.61425781 81.984668,6.70117188 L81.984668,6.41650391 L85.7229492,6.41650391 L85.7229492,5.72900391 C85.7229492,4.23583984 84.7668945,3.27441406 83.4294922,3.27441406 C82.0920898,3.27441406 81.1360352,4.23583984 81.1360352,5.72900391 L81.1360352,6.64208984 C81.1360352,8.11914062 82.0007813,9.09130859 83.4993164,9.09130859 L83.4993164,9.09130859 Z M81.984668,5.76123047 L81.984668,5.65917969 C81.984668,4.67089844 82.559375,4.015625 83.4294922,4.015625 C84.2996094,4.015625 84.8743164,4.67089844 84.8743164,5.65917969 L84.8743164,5.76123047 L81.984668,5.76123047 Z M89.4839844,3.27441406 C88.1573242,3.27441406 87.3086914,4.24121094 87.3086914,5.65380859 L87.3086914,6.71728516 C87.3086914,8.14599609 88.1304688,9.09130859 89.4678711,9.09130859 C90.380957,9.09130859 90.9234375,8.65087891 91.1382813,8.15673828 L91.18125,8.15673828 L91.18125,10.9765625 L92.0245117,10.9765625 L92.0245117,3.36572266 L91.2242188,3.36572266 L91.2242188,4.24658203 L91.18125,4.24658203 C90.9449219,3.70947266 90.3755859,3.27441406 89.4839844,3.27441406 L89.4839844,3.27441406 Z M89.634375,4.02636719 C90.552832,4.02636719 91.18125,4.69775391 91.18125,5.60009766 L91.18125,6.65283203 C91.18125,7.68945312 90.6011719,8.35009766 89.6558594,8.35009766 C88.7051758,8.35009766 88.1519531,7.68408203 88.1519531,6.55078125 L88.1519531,5.81494141 C88.1519531,4.73535156 88.6890625,4.02636719 89.634375,4.02636719 L89.634375,4.02636719 Z M98.6751953,3.36572266 L97.8265625,3.36572266 L97.8265625,6.98046875 C97.8265625,7.71630859 97.1712891,8.36083984 96.2958008,8.36083984 C95.5814453,8.36083984 95.0121094,8.04394531 95.0121094,7.08789062 L95.0121094,3.36572266 L94.1634766,3.36572266 L94.1634766,7.30273438 C94.1634766,8.60253906 94.9745117,9.09130859 96.1024414,9.09130859 C97.0907227,9.09130859 97.6170899,8.52734375 97.7782227,8.06542969 L97.8265625,8.06542969 L97.8265625,9 L98.6751953,9 L98.6751953,3.36572266 Z M100.996777,9 L101.840039,9 L101.840039,3.36572266 L100.996777,3.36572266 L100.996777,9 Z M100.781934,1.609375 C100.781934,1.96923828 101.06123,2.23779297 101.410352,2.23779297 C101.780957,2.23779297 102.054883,1.96923828 102.054883,1.609375 C102.054883,1.23876953 101.780957,0.970214844 101.410352,0.970214844 C101.06123,0.970214844 100.781934,1.23876953 100.781934,1.609375 L100.781934,1.609375 Z M104.258301,9 L105.101563,9 L105.101563,5.43896484 C105.101563,4.67626953 105.611816,4.06396484 106.621582,4.06396484 C106.782715,4.06396484 106.959961,4.06933594 107.05127,4.08544922 L107.05127,3.30126953 C106.938477,3.29052734 106.825684,3.27978516 106.723633,3.27978516 C105.697754,3.27978516 105.289551,3.85986328 105.144531,4.23046875 L105.101563,4.23046875 L105.101563,3.36572266 L104.258301,3.36572266 L104.258301,9 Z M110.672656,9.09130859 C112.047656,9.09130859 112.724414,8.24267578 112.815723,7.66796875 L111.91875,7.66796875 C111.811328,8.01708984 111.354785,8.33935547 110.667285,8.33935547 C109.673633,8.33935547 109.158008,7.61425781 109.158008,6.70117188 L109.158008,6.41650391 L112.896289,6.41650391 L112.896289,5.72900391 C112.896289,4.23583984 111.940234,3.27441406 110.602832,3.27441406 C109.26543,3.27441406 108.309375,4.23583984 108.309375,5.72900391 L108.309375,6.64208984 C108.309375,8.11914062 109.174121,9.09130859 110.672656,9.09130859 L110.672656,9.09130859 Z M109.158008,5.76123047 L109.158008,5.65917969 C109.158008,4.67089844 109.732715,4.015625 110.602832,4.015625 C111.472949,4.015625 112.047656,4.67089844 112.047656,5.65917969 L112.047656,5.76123047 L109.158008,5.76123047 Z M116.689551,3.26904297 C115.341406,3.26904297 114.482031,4.21435547 114.482031,5.59472656 L114.482031,6.765625 C114.482031,8.18359375 115.35752,9.0859375 116.662695,9.0859375 C117.650977,9.0859375 118.241797,8.56494141 118.370703,8.10302734 L118.413672,8.10302734 L118.413672,9 L119.213965,9 L119.213965,1.28173828 L118.370703,1.28173828 L118.370703,4.1875 L118.327734,4.1875 C118.145117,3.72558594 117.624121,3.26904297 116.689551,3.26904297 L116.689551,3.26904297 Z M116.802344,4.02099609 C117.720801,4.02099609 118.370703,4.69238281 118.370703,5.59472656 L118.370703,6.64746094 C118.370703,7.68408203 117.769141,8.34472656 116.83457,8.34472656 C115.905371,8.34472656 115.325293,7.69482422 115.325293,6.54541016 L115.325293,5.80957031 C115.325293,4.68164062 115.889258,4.02099609 116.802344,4.02099609 L116.802344,4.02099609 Z" id="required" sketch:type="MSShapeGroup"></path>
            </g>
        </g>
    </g>
</svg>